<?xml version="1.0" encoding="utf-8"?>
<!-- Generator: Adobe Illustrator 21.0.2, SVG Export Plug-In . SVG Version: 6.00 Build 0)  -->
<svg version="1.1" id="syn" xmlns="http://www.w3.org/2000/svg" xmlns:xlink="http://www.w3.org/1999/xlink" x="0px" y="0px"
	 viewBox="0 0 98.1 37.3" style="enable-background:new 0 0 98.1 37.3;" xml:space="preserve">
<style type="text/css">
	.st0{fill:#171717;}
</style>
<g>
	<path class="st0" d="M8.3,27.7c0.4,0.8,1,1.5,1.7,2c0.7,0.5,1.6,0.9,2.5,1.1c1,0.2,2,0.4,3,0.4c0.7,0,1.4-0.1,2.2-0.2
		c0.8-0.1,1.5-0.3,2.2-0.7c0.7-0.3,1.3-0.8,1.7-1.4c0.5-0.6,0.7-1.3,0.7-2.2c0-1-0.3-1.8-0.9-2.4c-0.6-0.6-1.4-1.1-2.4-1.5
		c-1-0.4-2.1-0.7-3.4-1c-1.3-0.3-2.6-0.6-3.9-1c-1.3-0.3-2.6-0.7-3.9-1.2c-1.3-0.5-2.4-1.1-3.4-1.9c-1-0.8-1.8-1.7-2.4-2.9
		c-0.6-1.1-0.9-2.5-0.9-4.2C1.2,9,1.6,7.4,2.4,6c0.8-1.3,1.8-2.5,3.1-3.4c1.3-0.9,2.7-1.6,4.3-2C11.4,0.2,13,0,14.6,0
		c1.9,0,3.7,0.2,5.4,0.6c1.7,0.4,3.2,1.1,4.6,2c1.3,0.9,2.4,2.1,3.2,3.6c0.8,1.4,1.2,3.2,1.2,5.3h-7.6c-0.1-1.1-0.3-2-0.7-2.6
		c-0.4-0.7-0.9-1.2-1.5-1.7c-0.6-0.4-1.4-0.7-2.2-0.8c-0.8-0.2-1.7-0.2-2.7-0.2c-0.6,0-1.3,0.1-1.9,0.2c-0.6,0.1-1.2,0.4-1.7,0.7
		c-0.5,0.3-0.9,0.8-1.3,1.2C9,8.7,8.8,9.4,8.8,10.1c0,0.7,0.1,1.3,0.4,1.7c0.3,0.4,0.8,0.8,1.6,1.2c0.8,0.4,1.9,0.7,3.2,1.1
		c1.4,0.4,3.2,0.8,5.4,1.4c0.7,0.1,1.6,0.4,2.8,0.7c1.2,0.4,2.4,0.9,3.5,1.7c1.2,0.8,2.2,1.8,3,3.1c0.9,1.3,1.3,2.9,1.3,4.9
		c0,1.6-0.3,3.2-1,4.5c-0.6,1.4-1.6,2.6-2.8,3.6s-2.8,1.8-4.6,2.4c-1.8,0.6-4,0.8-6.4,0.8c-2,0-3.9-0.2-5.7-0.7
		c-1.8-0.5-3.5-1.2-4.9-2.3c-1.4-1-2.5-2.3-3.4-3.9C0.4,28.8,0,26.9,0,24.7h7.6C7.6,25.9,7.8,26.9,8.3,27.7z"/>
	<path class="st0" d="M30.9,0.8h8.8L48,14.9l8.3-14.1H65l-13.2,22v13.7h-7.8V22.6L30.9,0.8z"/>
	<path class="st0" d="M75.8,0.8l14.9,23.9h0.1V0.8h7.4v35.7h-7.9L75.5,12.6h-0.1v23.9H68V0.8H75.8z"/>
	<path class="st0" d="M132.8,0.8c1.7,0,3.2,0.2,4.6,0.5s2.6,0.8,3.6,1.5c1,0.7,1.8,1.6,2.3,2.7c0.5,1.1,0.8,2.5,0.8,4.2
		c0,1.8-0.4,3.3-1.2,4.5c-0.8,1.2-2,2.2-3.6,2.9c2.2,0.6,3.8,1.7,4.9,3.3c1.1,1.6,1.6,3.5,1.6,5.7c0,1.8-0.4,3.4-1.1,4.7
		c-0.7,1.3-1.6,2.4-2.8,3.2c-1.2,0.8-2.5,1.5-4,1.9c-1.5,0.4-3.1,0.6-4.7,0.6H116V0.8H132.8z M131.8,15.3c1.4,0,2.5-0.3,3.4-1
		c0.9-0.7,1.4-1.8,1.4-3.2c0-0.8-0.1-1.5-0.5-2c-0.3-0.5-0.7-1-1.2-1.2s-1.1-0.5-1.7-0.6c-0.6-0.1-1.3-0.2-2-0.2h-7.3v8.3H131.8z
		 M132.2,30.4c0.8,0,1.5-0.1,2.2-0.2c0.7-0.2,1.3-0.4,1.9-0.8c0.5-0.4,1-0.8,1.3-1.4c0.3-0.6,0.5-1.4,0.5-2.3c0-1.8-0.5-3.1-1.5-3.9
		c-1-0.8-2.4-1.2-4.1-1.2h-8.5v9.8H132.2z"/>
	<path class="st0" d="M147.3,0.8h8.8l8.3,14.1l8.3-14.1h8.7l-13.2,22v13.7h-7.8V22.6L147.3,0.8z"/>
	<path class="st0" d="M210.8,0.8c2.3,0,4.4,0.4,6.4,1.1c2,0.7,3.7,1.8,5.1,3.3c1.5,1.5,2.6,3.3,3.4,5.5c0.8,2.2,1.2,4.8,1.2,7.8
		c0,2.6-0.3,5-1,7.2c-0.7,2.2-1.7,4.1-3,5.7c-1.3,1.6-3,2.9-5,3.8c-2,0.9-4.4,1.4-7.1,1.4h-15.4V0.8H210.8z M210.3,29.9
		c1.1,0,2.2-0.2,3.3-0.5c1.1-0.4,2-1,2.8-1.8c0.8-0.8,1.5-2,2-3.3c0.5-1.4,0.8-3,0.8-5c0-1.8-0.2-3.4-0.5-4.9
		c-0.3-1.5-0.9-2.7-1.7-3.7s-1.9-1.8-3.2-2.4c-1.3-0.5-2.9-0.8-4.9-0.8h-5.6v22.5H210.3z"/>
	<path class="st0" d="M259.2,0.8v6.6h-18.8v7.6h17.3v6.1h-17.3v8.8h19.2v6.6h-27.1V0.8H259.2z"/>
	<path class="st0" d="M270.9,27.7c0.4,0.8,1,1.5,1.7,2s1.6,0.9,2.5,1.1c1,0.2,2,0.4,3,0.4c0.7,0,1.4-0.1,2.2-0.2
		c0.8-0.1,1.5-0.3,2.2-0.7c0.7-0.3,1.3-0.8,1.7-1.4c0.5-0.6,0.7-1.3,0.7-2.2c0-1-0.3-1.8-0.9-2.4c-0.6-0.6-1.4-1.1-2.4-1.5
		c-1-0.4-2.1-0.7-3.4-1c-1.3-0.3-2.5-0.6-3.8-1c-1.3-0.3-2.6-0.7-3.9-1.2c-1.3-0.5-2.4-1.1-3.4-1.9c-1-0.8-1.8-1.7-2.4-2.9
		c-0.6-1.1-0.9-2.5-0.9-4.2c0-1.8,0.4-3.4,1.2-4.8s1.8-2.5,3.1-3.4c1.3-0.9,2.7-1.6,4.3-2c1.6-0.4,3.2-0.6,4.8-0.6
		c1.9,0,3.7,0.2,5.4,0.6s3.2,1.1,4.6,2c1.3,0.9,2.4,2.1,3.2,3.6c0.8,1.4,1.2,3.2,1.2,5.3h-7.6c-0.1-1.1-0.3-2-0.7-2.6
		c-0.4-0.7-0.9-1.2-1.5-1.7s-1.4-0.7-2.2-0.8c-0.8-0.2-1.7-0.2-2.7-0.2c-0.6,0-1.3,0.1-1.9,0.2c-0.6,0.1-1.2,0.4-1.7,0.7
		c-0.5,0.3-0.9,0.8-1.3,1.2s-0.5,1.1-0.5,1.9c0,0.7,0.1,1.3,0.4,1.7c0.3,0.4,0.8,0.8,1.6,1.2c0.8,0.4,1.9,0.7,3.2,1.1
		c1.4,0.4,3.2,0.8,5.4,1.4c0.7,0.1,1.6,0.4,2.8,0.7c1.2,0.4,2.4,0.9,3.5,1.7s2.2,1.8,3,3.1c0.9,1.3,1.3,2.9,1.3,4.9
		c0,1.6-0.3,3.2-1,4.5c-0.6,1.4-1.6,2.6-2.8,3.6s-2.8,1.8-4.6,2.4c-1.8,0.6-4,0.8-6.4,0.8c-2,0-3.9-0.2-5.7-0.7
		c-1.8-0.5-3.5-1.2-4.9-2.3c-1.4-1-2.5-2.3-3.4-3.9c-0.8-1.6-1.2-3.5-1.2-5.7h7.6C270.2,25.9,270.5,26.9,270.9,27.7z"/>
	<path class="st0" d="M305.2,0.8v35.7h-7.8V0.8H305.2z"/>
	<path class="st0" d="M333.2,36.3c-1.7,0.7-3.4,1.1-5.1,1.1c-2.7,0-5.2-0.5-7.4-1.4s-4-2.3-5.5-3.9c-1.5-1.7-2.7-3.6-3.5-5.9
		s-1.2-4.7-1.2-7.3c0-2.7,0.4-5.1,1.2-7.4c0.8-2.3,2-4.3,3.5-6s3.3-3,5.5-4c2.2-1,4.6-1.4,7.4-1.4c1.8,0,3.6,0.3,5.3,0.8
		c1.7,0.6,3.3,1.4,4.7,2.4c1.4,1.1,2.5,2.4,3.4,4c0.9,1.6,1.5,3.4,1.6,5.4h-7.5c-0.5-2-1.4-3.5-2.7-4.5s-3-1.5-4.8-1.5
		c-1.8,0-3.3,0.3-4.5,1c-1.2,0.7-2.2,1.6-3,2.8c-0.8,1.2-1.3,2.5-1.7,3.9c-0.3,1.5-0.5,3-0.5,4.5c0,1.5,0.2,3,0.5,4.4
		c0.3,1.4,0.9,2.7,1.7,3.8c0.8,1.1,1.8,2,3,2.7c1.2,0.7,2.7,1,4.5,1c2.6,0,4.6-0.7,6-2c1.4-1.3,2.2-3.2,2.5-5.7h-7.9v-5.8h15v19.3
		h-5l-0.8-4C336.5,34.3,334.9,35.6,333.2,36.3z"/>
	<path class="st0" d="M357.8,0.8l14.9,23.9h0.1V0.8h7.3v35.7h-7.8l-14.8-23.9h-0.1v23.9H350V0.8H357.8z"/>
</g>
</svg>
